<svg width="42" height="55" viewBox="0 0 42 55" fill="none" xmlns="http://www.w3.org/2000/svg">
<path d="M40.8817 42.627C39.9328 38.6855 39.8598 38.6855 29.6406 38.6125C24.3121 38.6125 15.5528 38.3205 10.1512 38.0286C4.74964 37.7366 0.151007 37.5906 0.00501879 37.6636C-0.0679754 37.8096 0.661966 39.0505 1.75688 40.4373C4.38467 43.9409 9.05629 47.2255 17.2316 51.459C26.2829 56.1305 29.1297 56.1305 36.3561 51.751C41.9037 48.3204 42.1226 47.8824 40.8817 42.627ZM33.1444 50.2912C30.5896 51.97 28.1078 53.2838 27.7428 53.2838C26.3559 53.2838 10.4432 44.3788 8.69132 42.627L6.86647 40.8023L20.7354 41.2402C38.3269 41.8241 37.889 41.7511 37.889 44.8168C37.889 47.0795 37.451 47.5905 33.1444 50.2912Z" fill="#FFA56A"/>
<path d="M37.8159 29.6345C36.721 23.0653 36.1371 22.7003 21.0273 18.9048C13.6549 17.007 7.52338 15.6201 7.37739 15.6931C6.64745 16.35 11.2461 23.5032 14.0199 26.0579C19.2754 30.9484 25.7719 33.649 35.9181 35.4008C38.9838 35.9118 38.9108 35.9848 37.8159 29.6345ZM32.0494 31.5323C28.4727 31.1673 22.6332 28.8316 18.6185 26.2039C15.3338 24.0142 13.2899 21.4595 14.0929 20.6565C14.3118 20.4376 18.3265 21.1675 22.9981 22.2624C32.5604 24.4521 35.2611 26.2039 34.8232 29.7805C34.6042 31.5323 34.3852 31.7513 32.0494 31.5323Z" fill="#FFA56A"/>
<path d="M33.8743 14.7443C32.7794 11.0947 31.0276 8.17505 28.8377 6.35027C27.3049 5.03642 17.0857 5.65973e-08 15.9178 5.54652e-09C15.6258 -7.21618e-09 15.8448 1.45983 16.5017 3.28462C18.0346 7.88309 23.8741 14.0874 28.8377 16.4231C34.3123 18.9778 35.0422 18.7588 33.8743 14.7443ZM27.3779 12.1166C25.188 10.7298 21.8303 7.22616 21.8303 6.35027C21.8303 5.1824 28.0348 9.19694 28.9107 10.9487C30.0786 13.2845 29.6407 13.6494 27.3779 12.1166Z" fill="#FFA56A"/>
</svg>
