<svg width="219" height="79" viewBox="0 0 219 79" fill="none" xmlns="http://www.w3.org/2000/svg">
<path d="M71.5161 43.76C67.9321 45.3813 65.2228 46.896 63.3881 48.304C61.5961 49.6693 60.7001 51.0987 60.7001 52.592C60.7001 53.8293 61.0415 54.8107 61.7241 55.536C62.4068 56.2613 63.2601 56.624 64.2841 56.624C65.3081 56.624 66.2681 56.4533 67.1641 56.112C68.0601 55.728 68.8281 55.2373 69.4681 54.64C70.1081 54.0427 70.5988 53.3387 70.9401 52.528C71.3241 51.6747 71.5161 50.7787 71.5161 49.84V43.76ZM71.5161 40.368V37.68C71.5161 35.2053 71.0681 33.4133 70.1721 32.304C69.3188 31.152 67.9748 30.576 66.1401 30.576C64.9028 30.576 63.9641 30.9173 63.3241 31.6C62.6841 32.24 62.0868 33.328 61.5321 34.864C61.1481 35.9307 60.5935 36.7627 59.8681 37.36C59.1855 37.9573 58.2255 38.256 56.9881 38.256C55.7935 38.256 54.8761 37.8933 54.2361 37.168C53.5961 36.4427 53.2761 35.4187 53.2761 34.096C53.2761 32.048 54.3855 30.4267 56.6041 29.232C58.8655 28.0373 62.2575 27.44 66.7801 27.44C71.5588 27.44 74.9721 28.3147 77.0201 30.064C79.0681 31.7707 80.0921 34.6507 80.0921 38.704V52.72C80.0921 56.3467 80.8175 58.16 82.2681 58.16C83.0788 58.16 83.8255 57.8827 84.5081 57.328L85.4681 59.184C84.8708 60.2507 83.9321 61.104 82.6521 61.744C81.4148 62.3413 80.0068 62.64 78.4281 62.64C76.4655 62.64 74.9721 62.0427 73.9481 60.848C72.9241 59.6533 72.4121 57.968 72.4121 55.792H72.0921C70.8548 58.0107 69.2548 59.696 67.2921 60.848C65.3295 62 63.0895 62.576 60.5721 62.576C57.8841 62.576 55.7295 61.8293 54.1081 60.336C52.4868 58.8 51.6761 56.816 51.6761 54.384C51.6761 52.5067 52.5081 50.7573 54.1721 49.136C55.8361 47.472 58.6095 45.8507 62.4921 44.272L71.5161 40.368ZM102.762 52.08C102.762 53.744 102.826 55.0667 102.954 56.048C103.125 56.9867 103.445 57.712 103.914 58.224C104.383 58.736 105.066 59.0773 105.962 59.248C106.858 59.376 108.053 59.44 109.546 59.44V62H88.1701V59.44C89.4501 59.3547 90.4741 59.2267 91.2421 59.056C92.0101 58.8853 92.5861 58.544 92.9701 58.032C93.3541 57.52 93.5888 56.7947 93.6741 55.856C93.8021 54.8747 93.8661 53.5733 93.8661 51.952V44.144C93.8661 41.4987 93.8021 39.3867 93.6741 37.808C93.5461 36.2293 93.2688 35.0133 92.8421 34.16C92.4155 33.3067 91.7968 32.752 90.9861 32.496C90.2181 32.1973 89.1941 32.048 87.9141 32.048V29.808L100.714 27.44L101.738 34.8H101.994C103.146 32.5387 104.661 30.7467 106.538 29.424C108.415 28.1013 110.399 27.44 112.49 27.44C114.111 27.44 115.434 27.8453 116.458 28.656C117.482 29.4667 117.994 30.4907 117.994 31.728C117.994 33.0933 117.589 34.2453 116.778 35.184C116.01 36.1227 114.943 36.592 113.578 36.592C112.938 36.592 112.362 36.464 111.85 36.208C111.338 35.952 110.869 35.6747 110.442 35.376C110.058 35.0347 109.653 34.736 109.226 34.48C108.842 34.1813 108.437 34.032 108.01 34.032C107.199 34.032 106.431 34.5653 105.706 35.632C104.981 36.6987 104.383 38.128 103.914 39.92C103.573 41.2 103.295 42.6507 103.082 44.272C102.869 45.8507 102.762 47.4293 102.762 49.008V52.08ZM132.525 47.984C132.525 49.5627 132.738 51.0347 133.165 52.4C133.634 53.7227 134.253 54.8747 135.021 55.856C135.789 56.8373 136.706 57.6053 137.773 58.16C138.84 58.7147 140.013 58.992 141.293 58.992C143.853 58.992 145.794 57.8187 147.117 55.472C148.44 53.1253 149.101 49.6693 149.101 45.104C149.101 40.6667 148.44 37.296 147.117 34.992C145.837 32.6453 143.896 31.472 141.293 31.472C139.757 31.472 138.328 31.8987 137.005 32.752C135.725 33.5627 134.722 34.7147 133.997 36.208C133.016 38.256 132.525 40.8373 132.525 43.952V47.984ZM132.397 32.496H132.653C133.762 30.8747 135.192 29.6373 136.941 28.784C138.69 27.888 140.674 27.44 142.893 27.44C145.154 27.44 147.245 27.9093 149.165 28.848C151.128 29.744 152.813 30.9813 154.221 32.56C155.672 34.1387 156.802 35.9947 157.613 38.128C158.424 40.2613 158.829 42.544 158.829 44.976C158.829 47.536 158.381 49.904 157.485 52.08C156.632 54.2133 155.437 56.0693 153.901 57.648C152.408 59.2267 150.637 60.464 148.589 61.36C146.584 62.256 144.45 62.704 142.189 62.704C139.842 62.704 137.624 62.256 135.533 61.36C133.485 60.4213 131.842 59.2053 130.605 57.712L125.741 62H123.565V23.92C123.565 19.9093 123.288 17.1573 122.733 15.664C122.605 15.3653 122.456 15.1093 122.285 14.896C122.114 14.6827 121.858 14.512 121.517 14.384C121.218 14.2133 120.792 14.0853 120.237 14C119.682 13.872 118.957 13.744 118.061 13.616V11.44L132.397 8.88V32.496ZM177.698 51.504C177.698 53.2107 177.762 54.576 177.89 55.6C178.018 56.624 178.274 57.4133 178.658 57.968C179.042 58.5227 179.597 58.9067 180.322 59.12C181.047 59.2907 182.029 59.3973 183.266 59.44V62H163.106V59.44C164.301 59.3973 165.261 59.2693 165.986 59.056C166.754 58.8 167.33 58.416 167.714 57.904C168.141 57.3493 168.418 56.6027 168.546 55.664C168.717 54.6827 168.802 53.4453 168.802 51.952V44.08C168.802 41.6053 168.759 39.5787 168.674 38C168.589 36.3787 168.482 35.2693 168.354 34.672C168.141 33.6053 167.65 32.9013 166.882 32.56C166.157 32.2187 164.813 32.048 162.85 32.048V29.872L177.698 27.44V51.504ZM168.29 13.872C168.29 12.464 168.759 11.2907 169.698 10.352C170.679 9.37066 171.853 8.88 173.218 8.88C174.626 8.88 175.799 9.37066 176.738 10.352C177.719 11.2907 178.21 12.464 178.21 13.872C178.21 15.2373 177.719 16.4107 176.738 17.392C175.799 18.3307 174.626 18.8 173.218 18.8C171.853 18.8 170.679 18.3307 169.698 17.392C168.759 16.4107 168.29 15.2373 168.29 13.872ZM185.463 28.08H192.375V24.496C192.375 22.192 192.759 20.08 193.527 18.16C194.338 16.24 195.447 14.5973 196.855 13.232C198.263 11.824 199.948 10.7573 201.911 10.032C203.916 9.264 206.135 8.88 208.567 8.88C210.018 8.88 211.34 9.02933 212.535 9.328C213.772 9.584 214.839 9.94666 215.735 10.416C216.631 10.8853 217.314 11.4613 217.783 12.144C218.295 12.8267 218.551 13.552 218.551 14.32C218.551 15.3013 218.188 16.112 217.463 16.752C216.738 17.392 215.82 17.712 214.711 17.712C213.943 17.712 213.26 17.456 212.663 16.944C212.108 16.432 211.255 15.4933 210.103 14.128C209.591 13.5307 209.058 13.104 208.503 12.848C207.948 12.592 207.372 12.464 206.775 12.464C205.068 12.464 203.724 13.5093 202.743 15.6C201.762 17.648 201.271 20.4853 201.271 24.112V28.08H212.087V31.6H201.271V51.376C201.271 52.9973 201.356 54.32 201.527 55.344C201.74 56.368 202.103 57.1787 202.615 57.776C203.17 58.3733 203.895 58.8 204.791 59.056C205.687 59.2693 206.839 59.3973 208.247 59.44V62H186.615V59.44C187.895 59.3973 188.919 59.2907 189.687 59.12C190.455 58.9067 191.031 58.544 191.415 58.032C191.799 57.4773 192.055 56.7307 192.183 55.792C192.311 54.8107 192.375 53.5093 192.375 51.888V31.6H185.463V28.08Z" fill="#084D43"/>
<path d="M43.764 54.627C42.7637 50.6855 42.6867 50.6855 31.914 50.6125C26.2967 50.6125 17.0629 50.3205 11.3687 50.0286C5.67454 49.7366 0.82679 49.5906 0.672893 49.6636C0.595945 49.8096 1.36543 51.0505 2.51966 52.4373C5.2898 55.9409 10.2145 59.2255 18.8327 63.459C28.3743 68.1305 31.3753 68.1305 38.9932 63.751C44.8413 60.3204 45.0721 59.8824 43.764 54.627ZM35.6075 62.2912C32.9143 63.97 30.298 65.2838 29.9133 65.2838C28.4513 65.2838 11.6765 56.3788 9.82976 54.627L7.90605 52.8023L22.5262 53.2402C41.0708 53.8241 40.6091 53.7511 40.6091 56.8168C40.6091 59.0795 40.1474 59.5905 35.6075 62.2912Z" fill="#084D43"/>
<path d="M40.5321 41.6346C39.3778 35.0653 38.7622 34.7004 22.8339 30.9048C15.0621 29.007 8.59848 27.6202 8.44458 27.6932C7.6751 28.3501 12.5228 35.5033 15.4469 38.058C20.9872 42.9484 27.8356 45.6491 38.5314 47.4009C41.7632 47.9118 41.6863 47.9848 40.5321 41.6346ZM34.4531 43.5324C30.6827 43.1674 24.5268 40.8317 20.2946 38.204C16.832 36.0142 14.6774 33.4595 15.5238 32.6566C15.7547 32.4376 19.9868 33.1676 24.9115 34.2624C34.9918 36.4522 37.8389 38.204 37.3772 41.7806C37.1463 43.5324 36.9155 43.7513 34.4531 43.5324Z" fill="#084D43"/>
<path d="M36.377 26.7443C35.2228 23.0947 33.3761 20.1751 31.0676 18.3503C29.4517 17.0364 18.6789 12 17.4477 12C17.1399 12 17.3708 13.4598 18.0633 15.2846C19.6792 19.8831 25.8351 26.0874 31.0676 28.4231C36.8387 30.9778 37.6082 30.7588 36.377 26.7443ZM29.5286 24.1166C27.2202 22.7298 23.6806 19.2262 23.6806 18.3503C23.6806 17.1824 30.2212 21.1969 31.1445 22.9487C32.3757 25.2845 31.914 25.6494 29.5286 24.1166Z" fill="#084D43"/>
</svg>
