<svg width="227" height="79" viewBox="0 0 227 79" fill="none" xmlns="http://www.w3.org/2000/svg">
<path d="M79.5161 43.76C75.9321 45.3813 73.2228 46.896 71.3881 48.304C69.5961 49.6693 68.7001 51.0987 68.7001 52.592C68.7001 53.8293 69.0415 54.8107 69.7241 55.536C70.4068 56.2613 71.2601 56.624 72.2841 56.624C73.3081 56.624 74.2681 56.4533 75.1641 56.112C76.0601 55.728 76.8281 55.2373 77.4681 54.64C78.1081 54.0427 78.5988 53.3387 78.9401 52.528C79.3241 51.6747 79.5161 50.7787 79.5161 49.84V43.76ZM79.5161 40.368V37.68C79.5161 35.2053 79.0681 33.4133 78.1721 32.304C77.3188 31.152 75.9748 30.576 74.1401 30.576C72.9028 30.576 71.9641 30.9173 71.3241 31.6C70.6841 32.24 70.0868 33.328 69.5321 34.864C69.1481 35.9307 68.5935 36.7627 67.8681 37.36C67.1855 37.9573 66.2255 38.256 64.9881 38.256C63.7935 38.256 62.8761 37.8933 62.2361 37.168C61.5961 36.4427 61.2761 35.4187 61.2761 34.096C61.2761 32.048 62.3855 30.4267 64.6041 29.232C66.8655 28.0373 70.2575 27.44 74.7801 27.44C79.5588 27.44 82.9721 28.3147 85.0201 30.064C87.0681 31.7707 88.0921 34.6507 88.0921 38.704V52.72C88.0921 56.3467 88.8175 58.16 90.2681 58.16C91.0788 58.16 91.8255 57.8827 92.5081 57.328L93.4681 59.184C92.8708 60.2507 91.9321 61.104 90.6521 61.744C89.4148 62.3413 88.0068 62.64 86.4281 62.64C84.4655 62.64 82.9721 62.0427 81.9481 60.848C80.9241 59.6533 80.4121 57.968 80.4121 55.792H80.0921C78.8548 58.0107 77.2548 59.696 75.2921 60.848C73.3295 62 71.0895 62.576 68.5721 62.576C65.8841 62.576 63.7295 61.8293 62.1081 60.336C60.4868 58.8 59.6761 56.816 59.6761 54.384C59.6761 52.5067 60.5081 50.7573 62.1721 49.136C63.8361 47.472 66.6095 45.8507 70.4921 44.272L79.5161 40.368ZM110.762 52.08C110.762 53.744 110.826 55.0667 110.954 56.048C111.125 56.9867 111.445 57.712 111.914 58.224C112.383 58.736 113.066 59.0773 113.962 59.248C114.858 59.376 116.053 59.44 117.546 59.44V62H96.1701V59.44C97.4501 59.3547 98.4741 59.2267 99.2421 59.056C100.01 58.8853 100.586 58.544 100.97 58.032C101.354 57.52 101.589 56.7947 101.674 55.856C101.802 54.8747 101.866 53.5733 101.866 51.952V44.144C101.866 41.4987 101.802 39.3867 101.674 37.808C101.546 36.2293 101.269 35.0133 100.842 34.16C100.415 33.3067 99.7968 32.752 98.9861 32.496C98.2181 32.1973 97.1941 32.048 95.9141 32.048V29.808L108.714 27.44L109.738 34.8H109.994C111.146 32.5387 112.661 30.7467 114.538 29.424C116.415 28.1013 118.399 27.44 120.49 27.44C122.111 27.44 123.434 27.8453 124.458 28.656C125.482 29.4667 125.994 30.4907 125.994 31.728C125.994 33.0933 125.589 34.2453 124.778 35.184C124.01 36.1227 122.943 36.592 121.578 36.592C120.938 36.592 120.362 36.464 119.85 36.208C119.338 35.952 118.869 35.6747 118.442 35.376C118.058 35.0347 117.653 34.736 117.226 34.48C116.842 34.1813 116.437 34.032 116.01 34.032C115.199 34.032 114.431 34.5653 113.706 35.632C112.981 36.6987 112.383 38.128 111.914 39.92C111.573 41.2 111.295 42.6507 111.082 44.272C110.869 45.8507 110.762 47.4293 110.762 49.008V52.08ZM140.525 47.984C140.525 49.5627 140.738 51.0347 141.165 52.4C141.634 53.7227 142.253 54.8747 143.021 55.856C143.789 56.8373 144.706 57.6053 145.773 58.16C146.84 58.7147 148.013 58.992 149.293 58.992C151.853 58.992 153.794 57.8187 155.117 55.472C156.44 53.1253 157.101 49.6693 157.101 45.104C157.101 40.6667 156.44 37.296 155.117 34.992C153.837 32.6453 151.896 31.472 149.293 31.472C147.757 31.472 146.328 31.8987 145.005 32.752C143.725 33.5627 142.722 34.7147 141.997 36.208C141.016 38.256 140.525 40.8373 140.525 43.952V47.984ZM140.397 32.496H140.653C141.762 30.8747 143.192 29.6373 144.941 28.784C146.69 27.888 148.674 27.44 150.893 27.44C153.154 27.44 155.245 27.9093 157.165 28.848C159.128 29.744 160.813 30.9813 162.221 32.56C163.672 34.1387 164.802 35.9947 165.613 38.128C166.424 40.2613 166.829 42.544 166.829 44.976C166.829 47.536 166.381 49.904 165.485 52.08C164.632 54.2133 163.437 56.0693 161.901 57.648C160.408 59.2267 158.637 60.464 156.589 61.36C154.584 62.256 152.45 62.704 150.189 62.704C147.842 62.704 145.624 62.256 143.533 61.36C141.485 60.4213 139.842 59.2053 138.605 57.712L133.741 62H131.565V23.92C131.565 19.9093 131.288 17.1573 130.733 15.664C130.605 15.3653 130.456 15.1093 130.285 14.896C130.114 14.6827 129.858 14.512 129.517 14.384C129.218 14.2133 128.792 14.0853 128.237 14C127.682 13.872 126.957 13.744 126.061 13.616V11.44L140.397 8.88V32.496ZM185.698 51.504C185.698 53.2107 185.762 54.576 185.89 55.6C186.018 56.624 186.274 57.4133 186.658 57.968C187.042 58.5227 187.597 58.9067 188.322 59.12C189.047 59.2907 190.029 59.3973 191.266 59.44V62H171.106V59.44C172.301 59.3973 173.261 59.2693 173.986 59.056C174.754 58.8 175.33 58.416 175.714 57.904C176.141 57.3493 176.418 56.6027 176.546 55.664C176.717 54.6827 176.802 53.4453 176.802 51.952V44.08C176.802 41.6053 176.759 39.5787 176.674 38C176.589 36.3787 176.482 35.2693 176.354 34.672C176.141 33.6053 175.65 32.9013 174.882 32.56C174.157 32.2187 172.813 32.048 170.85 32.048V29.872L185.698 27.44V51.504ZM176.29 13.872C176.29 12.464 176.759 11.2907 177.698 10.352C178.679 9.37066 179.853 8.88 181.218 8.88C182.626 8.88 183.799 9.37066 184.738 10.352C185.719 11.2907 186.21 12.464 186.21 13.872C186.21 15.2373 185.719 16.4107 184.738 17.392C183.799 18.3307 182.626 18.8 181.218 18.8C179.853 18.8 178.679 18.3307 177.698 17.392C176.759 16.4107 176.29 15.2373 176.29 13.872ZM193.463 28.08H200.375V24.496C200.375 22.192 200.759 20.08 201.527 18.16C202.338 16.24 203.447 14.5973 204.855 13.232C206.263 11.824 207.948 10.7573 209.911 10.032C211.916 9.264 214.135 8.88 216.567 8.88C218.018 8.88 219.34 9.02933 220.535 9.328C221.772 9.584 222.839 9.94666 223.735 10.416C224.631 10.8853 225.314 11.4613 225.783 12.144C226.295 12.8267 226.551 13.552 226.551 14.32C226.551 15.3013 226.188 16.112 225.463 16.752C224.738 17.392 223.82 17.712 222.711 17.712C221.943 17.712 221.26 17.456 220.663 16.944C220.108 16.432 219.255 15.4933 218.103 14.128C217.591 13.5307 217.058 13.104 216.503 12.848C215.948 12.592 215.372 12.464 214.775 12.464C213.068 12.464 211.724 13.5093 210.743 15.6C209.762 17.648 209.271 20.4853 209.271 24.112V28.08H220.087V31.6H209.271V51.376C209.271 52.9973 209.356 54.32 209.527 55.344C209.74 56.368 210.103 57.1787 210.615 57.776C211.17 58.3733 211.895 58.8 212.791 59.056C213.687 59.2693 214.839 59.3973 216.247 59.44V62H194.615V59.44C195.895 59.3973 196.919 59.2907 197.687 59.12C198.455 58.9067 199.031 58.544 199.415 58.032C199.799 57.4773 200.055 56.7307 200.183 55.792C200.311 54.8107 200.375 53.5093 200.375 51.888V31.6H193.463V28.08Z" fill="white"/>
<path d="M40.8817 54.627C39.9328 50.6855 39.8598 50.6855 29.6406 50.6125C24.3121 50.6125 15.5528 50.3205 10.1512 50.0286C4.74964 49.7366 0.151007 49.5906 0.00501879 49.6636C-0.0679754 49.8096 0.661966 51.0505 1.75688 52.4373C4.38467 55.9409 9.05629 59.2255 17.2316 63.459C26.2829 68.1305 29.1297 68.1305 36.3561 63.751C41.9037 60.3204 42.1226 59.8824 40.8817 54.627ZM33.1444 62.2912C30.5896 63.97 28.1078 65.2838 27.7428 65.2838C26.3559 65.2838 10.4432 56.3788 8.69132 54.627L6.86647 52.8023L20.7354 53.2402C38.3269 53.8241 37.889 53.7511 37.889 56.8168C37.889 59.0795 37.451 59.5905 33.1444 62.2912Z" fill="#FFA56A"/>
<path d="M37.8159 41.6345C36.721 35.0653 36.1371 34.7003 21.0273 30.9048C13.6549 29.007 7.52338 27.6201 7.37739 27.6931C6.64745 28.35 11.2461 35.5032 14.0199 38.0579C19.2754 42.9484 25.7719 45.649 35.9181 47.4008C38.9838 47.9118 38.9108 47.9848 37.8159 41.6345ZM32.0494 43.5323C28.4727 43.1673 22.6332 40.8316 18.6185 38.2039C15.3338 36.0142 13.2899 33.4595 14.0929 32.6565C14.3118 32.4376 18.3265 33.1675 22.9981 34.2624C32.5604 36.4521 35.2611 38.2039 34.8232 41.7805C34.6042 43.5323 34.3852 43.7513 32.0494 43.5323Z" fill="#FFA56A"/>
<path d="M33.8743 26.7443C32.7794 23.0947 31.0276 20.1751 28.8377 18.3503C27.3049 17.0364 17.0857 12 15.9178 12C15.6258 12 15.8448 13.4598 16.5017 15.2846C18.0346 19.8831 23.8741 26.0874 28.8377 28.4231C34.3123 30.9778 35.0422 30.7588 33.8743 26.7443ZM27.3779 24.1166C25.188 22.7298 21.8303 19.2262 21.8303 18.3503C21.8303 17.1824 28.0348 21.1969 28.9107 22.9487C30.0786 25.2845 29.6407 25.6494 27.3779 24.1166Z" fill="#FFA56A"/>
</svg>
